<?xml version="1.0" standalone="no"?><!DOCTYPE svg PUBLIC "-//W3C//DTD SVG 1.1//EN" "http://www.w3.org/Graphics/SVG/1.1/DTD/svg11.dtd"><svg t="1588059499389" class="icon" viewBox="0 0 1024 1024" version="1.1" xmlns="http://www.w3.org/2000/svg" p-id="4532" xmlns:xlink="http://www.w3.org/1999/xlink" width="200" height="200"><defs><style type="text/css"></style></defs><path d="M849 398c-2.7 61.6-17 122.2-42.1 178.5-31.6 71.2-71.2 138.5-118.2 200.6-40.3 55.3-84.1 107.7-129.2 159.2-11.5 15.2-29.6 24-48.7 23.8-17.5-1.4-33.7-10.2-44.4-24.1-19.3-22.1-38.4-44.4-57.2-66.9C357 808 309.6 742.9 267.4 674.4c-35.9-57.1-63-119.3-80.4-184.5-49.3-179.2 56.1-364.4 235.3-413.7C601.5 26.9 786.7 132.3 836 311.5c2.1 7.5 3.9 15.1 5.4 22.7 4.1 20.9 5.1 42.5 7.6 63.8z m-188.4 0.2c0.9-83.1-65.7-151.2-148.8-152.2-83.1-0.9-151.2 65.7-152.2 148.8-0.9 83.1 65.7 151.2 148.8 152.2h1.2c82.7 0.6 150.3-66 151-148.8z" fill="#26C589" p-id="4533"></path></svg>