<?xml version="1.0" encoding="utf-8"?>
<!-- Generator: Adobe Illustrator 21.0.0, SVG Export Plug-In . SVG Version: 6.00 Build 0)  -->
<svg version="1.1" id="图层_1" xmlns="http://www.w3.org/2000/svg" xmlns:xlink="http://www.w3.org/1999/xlink" x="0px" y="0px"
	 viewBox="0 0 200 200" style="enable-background:new 0 0 200 200;" xml:space="preserve">
<g>
	<path d="M192.9,100c-4.3,0-7.1,2.9-7.1,7.1v57.1H14.3v-57.1c0-4.3-2.9-7.1-7.1-7.1S0,102.9,0,107.1v56.4c0,7.9,6.4,15,14.3,15
		h171.4c7.9,0,14.3-7.1,14.3-15v-56.4C200,102.9,197.1,100,192.9,100z"/>
	<path d="M52.1,76.4c2.9,2.9,7.1,2.9,10,0l30.7-30.7v82.9c0,4.3,2.9,7.1,7.1,7.1s7.1-2.9,7.1-7.1V45.7l30.7,30.7
		c2.9,2.9,7.1,2.9,10,0c2.9-2.9,2.9-7.1,0-10L105,23.6c-0.7-0.7-1.4-1.4-2.1-1.4c-0.7-0.7-2.1-0.7-2.9-0.7s-2.1,0-2.9,0.7
		c-0.7,0.7-1.4,0.7-2.1,1.4L52.1,66.4C49.3,69.3,49.3,73.6,52.1,76.4z"/>
</g>
</svg>
